<svg xmlns="http://www.w3.org/2000/svg">
  <symbol id="play" viewBox="0 0 24 24"><path fill="currentColor" stroke="none" d="M7.5 4.6v14.8a.8.8 0 0 0 1.2.7l11.6-7.4a.8.8 0 0 0 0-1.4L8.7 3.9a.8.8 0 0 0-1.2.7z"/></symbol>
  <symbol id="pause" viewBox="0 0 24 24" fill="currentColor" stroke="none"><rect x="6" y="4.5" width="4" height="15" rx="1"/><rect x="14" y="4.5" width="4" height="15" rx="1"/></symbol>
  <symbol id="back" viewBox="0 0 24 24"><path d="M3.5 12a8.5 8.5 0 1 0 2.6-6.1L3.5 8.5"/><path d="M3.5 3.5v5h5"/></symbol>
  <symbol id="forward" viewBox="0 0 24 24"><path d="M20.5 12a8.5 8.5 0 1 1-2.6-6.1l2.6 2.6"/><path d="M20.5 3.5v5h-5"/></symbol>
  <symbol id="next" viewBox="0 0 24 24"><path fill="currentColor" d="M5 5.5v13l9.5-6.5z"/><path d="M18.5 5.5v13"/></symbol>
  <symbol id="plus" viewBox="0 0 24 24"><path d="M12 5v14M5 12h14"/></symbol>
  <symbol id="check" viewBox="0 0 24 24"><path d="M20 6 9 17l-5-5"/></symbol>
  <symbol id="more" viewBox="0 0 24 24" fill="currentColor" stroke="none"><circle cx="5.5" cy="12" r="1.3"/><circle cx="12" cy="12" r="1.3"/><circle cx="18.5" cy="12" r="1.3"/></symbol>
  <symbol id="grip" viewBox="0 0 24 24" fill="currentColor" stroke="none"><circle cx="9" cy="6.5" r="1.2"/><circle cx="15" cy="6.5" r="1.2"/><circle cx="9" cy="12" r="1.2"/><circle cx="15" cy="12" r="1.2"/><circle cx="9" cy="17.5" r="1.2"/><circle cx="15" cy="17.5" r="1.2"/></symbol>
  <symbol id="close" viewBox="0 0 24 24"><path d="M18 6 6 18M6 6l12 12"/></symbol>
  <symbol id="search" viewBox="0 0 24 24"><circle cx="11" cy="11" r="6.5"/><path d="m20 20-4.4-4.4"/></symbol>
  <symbol id="sliders" viewBox="0 0 24 24"><path d="M4 7h9M17 7h3M4 17h3M11 17h9"/><circle cx="15" cy="7" r="2"/><circle cx="9" cy="17" r="2"/></symbol>
  <symbol id="panel" viewBox="0 0 24 24"><rect x="3.5" y="4.5" width="17" height="15" rx="2"/><path d="M14.5 4.5v15"/></symbol>
  <symbol id="undo" viewBox="0 0 24 24"><path d="M9 14 4 9l5-5"/><path d="M4 9h10.5a5.5 5.5 0 0 1 0 11H11"/></symbol>
  <symbol id="external" viewBox="0 0 24 24"><path d="M14 4h6v6M10 14 20 4M18 13.5V19a1 1 0 0 1-1 1H5a1 1 0 0 1-1-1V7a1 1 0 0 1 1-1h5.5"/></symbol>
  <symbol id="trash" viewBox="0 0 24 24"><path d="M4 7h16M9.5 7V4.5h5V7M6.5 7l.8 12.1a1 1 0 0 0 1 .9h7.4a1 1 0 0 0 1-.9L17.5 7"/></symbol>
  <symbol id="alert" viewBox="0 0 24 24"><circle cx="12" cy="12" r="8.5"/><path d="M12 7.5v5M12 16.2v.1"/></symbol>
  <symbol id="doc" viewBox="0 0 24 24"><path d="M14 3.5H7a1.5 1.5 0 0 0-1.5 1.5v14A1.5 1.5 0 0 0 7 20.5h10a1.5 1.5 0 0 0 1.5-1.5V8z"/><path d="M14 3.5V8h4.5M9 12.5h6M9 16h4"/></symbol>
  <symbol id="text" viewBox="0 0 24 24"><path d="M5 6h14M5 10h14M5 14h9M5 18h6"/></symbol>
  <symbol id="moon" viewBox="0 0 24 24"><path d="M19.5 14.5A7.5 7.5 0 0 1 9.5 4.5a7.5 7.5 0 1 0 10 10z"/></symbol>
  <symbol id="queue" viewBox="0 0 24 24"><path d="M4 6.5h16M4 12h11M4 17.5h7"/></symbol>
  <symbol id="history" viewBox="0 0 24 24"><path d="M3.5 12a8.5 8.5 0 1 0 2.6-6.1L3.5 8.5"/><path d="M3.5 3.5v5h5M12 7.5V12l3 2"/></symbol>
  <symbol id="reader" viewBox="0 0 24 24"><path d="M12 6.5c-1.8-1.3-4.3-2-7.5-2v13c3.2 0 5.7.7 7.5 2 1.8-1.3 4.3-2 7.5-2v-13c-3.2 0-5.7.7-7.5 2zM12 6.5v13"/></symbol>
</svg>
